<?xml version="1.0" encoding="utf-8"?>
<!-- Generator: Adobe Illustrator 23.0.3, SVG Export Plug-In . SVG Version: 6.00 Build 0)  -->
<svg version="1.1" id="Layer_1" xmlns="http://www.w3.org/2000/svg" xmlns:xlink="http://www.w3.org/1999/xlink" x="0px" y="0px"
	 viewBox="0 0 923.1 256" style="enable-background:new 0 0 923.1 256;" xml:space="preserve">
<style type="text/css">
	.st0{fill:#5F01D1;}
</style>
<path class="st0" d="M0,62.3h54.9l32,81.8l32.4-81.8h53.5L92.2,256H38.4l22-51.3L0,62.3z M228.5,59.1c-41.3,0-67.3,37-67.3,73.9
	c0,41.5,28.6,74.3,66.6,74.3c28.3,0,39-17.3,39-17.3v13.4h47.9V62.3h-47.9v12.8C266.7,75.1,254.8,59.1,228.5,59.1L228.5,59.1z
	 M238.6,104.4c19,0,28.9,15.1,28.9,28.7c0,14.6-10.5,29-28.9,29c-15.2,0-28.9-12.4-28.9-28.4C209.7,117.5,220.8,104.4,238.6,104.4
	L238.6,104.4z M331.1,203.4V0h50.1v75.6c0,0,11.9-16.6,36.8-16.6c30.5,0,48.3,22.7,48.3,55.2v89.2h-49.7v-77
	c0-11-5.2-21.6-17.1-21.6c-12.1,0-18.4,10.8-18.4,21.6v77L331.1,203.4z M551.8,59.1c-47.3,0-75.4,35.9-75.4,74.4
	c0,43.8,34.1,73.8,75.6,73.8c40.2,0,75.4-28.6,75.4-73C627.4,85.6,590.5,59.1,551.8,59.1z M552.2,104.8c16.7,0,28.2,13.9,28.2,28.7
	c0,12.6-10.8,28.2-28.2,28.2c-16,0-28-12.8-28-28.4C524.2,118.5,534.2,104.8,552.2,104.8z M710.8,59.1c-47.3,0-75.4,35.9-75.4,74.4
	c0,43.8,34.1,73.8,75.6,73.8c40.2,0,75.4-28.6,75.4-73C786.4,85.6,749.6,59.1,710.8,59.1L710.8,59.1z M711.3,104.8
	c16.7,0,28.2,13.9,28.2,28.7c0,12.6-10.8,28.2-28.2,28.2c-16,0-28-12.8-28-28.4C683.2,118.5,693.2,104.8,711.3,104.8z"/>
<circle class="st0" cx="825.9" cy="173.2" r="33.3"/>
<path class="st0" d="M870.1,127.7h-59.9L863.4,0h59.7L870.1,127.7z"/>
</svg>
